<?xml version="1.0" encoding="UTF-8"?>
<svg width="500px" height="500px" viewBox="0 0 500 500" version="1.1" xmlns="http://www.w3.org/2000/svg" xmlns:xlink="http://www.w3.org/1999/xlink">
    <g transform="scale(1.000000,-1.000000) translate(0,-500)">
        <path d="M 9.000000 1.000000 L 52.899329 1.000000 C 57.317607 1.000000 60.899329 4.581722 60.899329 9.000000 L 60.899329 52.899329 C 60.899329 57.317607 57.317607 60.899329 52.899329 60.899329 L 9.000000 60.899329 C 4.581722 60.899329 1.000000 57.317607 1.000000 52.899329 L 1.000000 9.000000 C 1.000000 4.581722 4.581722 1.000000 9.000000 1.000000 Z" transform="scale(1.000000,1.000000) translate(19.108515,317.539515)" fill="#9fceff" opacity="1.000000"></path>
        <path d="M 9.000000 1.000000 L 52.899330 1.000000 C 57.317608 1.000000 60.899330 4.581722 60.899330 9.000000 L 60.899330 52.899330 C 60.899330 57.317608 57.317608 60.899330 52.899330 60.899330 L 9.000000 60.899330 C 4.581722 60.899330 1.000000 57.317608 1.000000 52.899330 L 1.000000 9.000000 C 1.000000 4.581722 4.581722 1.000000 9.000000 1.000000 Z" transform="scale(1.000000,1.000000) translate(85.411753,317.539514)" fill="#9fceff" opacity="1.000000"></path>
        <path d="M 9.000000 1.000000 L 52.899330 1.000000 C 57.317608 1.000000 60.899330 4.581722 60.899330 9.000000 L 60.899330 52.899330 C 60.899330 57.317608 57.317608 60.899330 52.899330 60.899330 L 9.000000 60.899330 C 4.581722 60.899330 1.000000 57.317608 1.000000 52.899330 L 1.000000 9.000000 C 1.000000 4.581722 4.581722 1.000000 9.000000 1.000000 Z" transform="scale(1.000000,1.000000) translate(85.761077,251.670845)" fill="#9fceff" opacity="1.000000"></path>
        <path d="M 9.000000 1.000000 L 52.899330 1.000000 C 57.317608 1.000000 60.899330 4.581722 60.899330 9.000000 L 60.899330 52.899330 C 60.899330 57.317608 57.317608 60.899330 52.899330 60.899330 L 9.000000 60.899330 C 4.581722 60.899330 1.000000 57.317608 1.000000 52.899330 L 1.000000 9.000000 C 1.000000 4.581722 4.581722 1.000000 9.000000 1.000000 Z" transform="scale(1.000000,1.000000) translate(85.761077,188.163972)" fill="#9fceff" opacity="1.000000"></path>
        <path d="M 9.000000 1.000000 L 52.899330 1.000000 C 57.317608 1.000000 60.899330 4.581722 60.899330 9.000000 L 60.899330 52.899330 C 60.899330 57.317608 57.317608 60.899330 52.899330 60.899330 L 9.000000 60.899330 C 4.581722 60.899330 1.000000 57.317608 1.000000 52.899330 L 1.000000 9.000000 C 1.000000 4.581722 4.581722 1.000000 9.000000 1.000000 Z" transform="scale(1.000000,1.000000) translate(152.401005,188.163972)" fill="#9fceff" opacity="1.000000"></path>
        <path d="M 9.000000 1.000000 L 52.899330 1.000000 C 57.317608 1.000000 60.899330 4.581722 60.899330 9.000000 L 60.899330 52.899330 C 60.899330 57.317608 57.317608 60.899330 52.899330 60.899330 L 9.000000 60.899330 C 4.581722 60.899330 1.000000 57.317608 1.000000 52.899330 L 1.000000 9.000000 C 1.000000 4.581722 4.581722 1.000000 9.000000 1.000000 Z" transform="scale(1.000000,1.000000) translate(85.761077,123.184659)" fill="#9fceff" opacity="1.000000"></path>
        <path d="M 9.000000 1.000000 L 52.899330 1.000000 C 57.317608 1.000000 60.899330 4.581722 60.899330 9.000000 L 60.899330 52.899330 C 60.899330 57.317608 57.317608 60.899330 52.899330 60.899330 L 9.000000 60.899330 C 4.581722 60.899330 1.000000 57.317608 1.000000 52.899330 L 1.000000 9.000000 C 1.000000 4.581722 4.581722 1.000000 9.000000 1.000000 Z" transform="scale(1.000000,1.000000) translate(152.401005,251.670846)" fill="#9fceff" opacity="1.000000"></path>
        <path d="M 9.000000 1.000000 L 52.899330 1.000000 C 57.317608 1.000000 60.899330 4.581722 60.899330 9.000000 L 60.899330 52.899330 C 60.899330 57.317608 57.317608 60.899330 52.899330 60.899330 L 9.000000 60.899330 C 4.581722 60.899330 1.000000 57.317608 1.000000 52.899330 L 1.000000 9.000000 C 1.000000 4.581722 4.581722 1.000000 9.000000 1.000000 Z" transform="scale(1.000000,1.000000) translate(19.108515,252.558783)" fill="#9fceff" opacity="1.000000"></path>
        <path d="M 9.000000 1.000000 L 52.899330 1.000000 C 57.317608 1.000000 60.899330 4.581722 60.899330 9.000000 L 60.899330 52.899330 C 60.899330 57.317608 57.317608 60.899330 52.899330 60.899330 L 9.000000 60.899330 C 4.581722 60.899330 1.000000 57.317608 1.000000 52.899330 L 1.000000 9.000000 C 1.000000 4.581722 4.581722 1.000000 9.000000 1.000000 Z" transform="scale(1.000000,1.000000) translate(19.108515,188.163989)" fill="#9fceff" opacity="1.000000"></path>
        <path d="M 9.000000 1.000000 L 52.899330 1.000000 C 57.317608 1.000000 60.899330 4.581722 60.899330 9.000000 L 60.899330 52.899330 C 60.899330 57.317608 57.317608 60.899330 52.899330 60.899330 L 9.000000 60.899330 C 4.581722 60.899330 1.000000 57.317608 1.000000 52.899330 L 1.000000 9.000000 C 1.000000 4.581722 4.581722 1.000000 9.000000 1.000000 Z" transform="scale(1.000000,1.000000) translate(19.108515,123.184659)" fill="#9fceff" opacity="1.000000"></path>
        <path d="M 9.000000 1.000000 L 52.899330 1.000000 C 57.317608 1.000000 60.899330 4.581722 60.899330 9.000000 L 60.899330 52.899330 C 60.899330 57.317608 57.317608 60.899330 52.899330 60.899330 L 9.000000 60.899330 C 4.581722 60.899330 1.000000 57.317608 1.000000 52.899330 L 1.000000 9.000000 C 1.000000 4.581722 4.581722 1.000000 9.000000 1.000000 Z" transform="scale(1.000000,1.000000) translate(219.050335,123.177902)" fill="#6886a6" opacity="1.000000"></path>
        <path d="M 9.000000 1.000000 L 52.899330 1.000000 C 57.317608 1.000000 60.899330 4.581722 60.899330 9.000000 L 60.899330 52.899330 C 60.899330 57.317608 57.317608 60.899330 52.899330 60.899330 L 9.000000 60.899330 C 4.581722 60.899330 1.000000 57.317608 1.000000 52.899330 L 1.000000 9.000000 C 1.000000 4.581722 4.581722 1.000000 9.000000 1.000000 Z" transform="scale(1.000000,1.000000) translate(219.050335,188.157234)" fill="#6886a6" opacity="1.000000"></path>
        <path d="M 9.000000 1.000000 L 52.899330 1.000000 C 57.317608 1.000000 60.899330 4.581722 60.899330 9.000000 L 60.899330 52.899330 C 60.899330 57.317608 57.317608 60.899330 52.899330 60.899330 L 9.000000 60.899330 C 4.581722 60.899330 1.000000 57.317608 1.000000 52.899330 L 1.000000 9.000000 C 1.000000 4.581722 4.581722 1.000000 9.000000 1.000000 Z" transform="scale(1.000000,1.000000) translate(219.050335,252.552025)" fill="#6886a6" opacity="1.000000"></path>
        <path d="M 9.000000 1.000000 L 52.899330 1.000000 C 57.317608 1.000000 60.899330 4.581722 60.899330 9.000000 L 60.899330 52.899330 C 60.899330 57.317608 57.317608 60.899330 52.899330 60.899330 L 9.000000 60.899330 C 4.581722 60.899330 1.000000 57.317608 1.000000 52.899330 L 1.000000 9.000000 C 1.000000 4.581722 4.581722 1.000000 9.000000 1.000000 Z" transform="scale(1.000000,1.000000) translate(219.050335,317.532768)" fill="#6886a6" opacity="1.000000"></path>
        <path d="M 9.000000 1.000000 L 52.899330 1.000000 C 57.317608 1.000000 60.899330 4.581722 60.899330 9.000000 L 60.899330 52.899330 C 60.899330 57.317608 57.317608 60.899330 52.899330 60.899330 L 9.000000 60.899330 C 4.581722 60.899330 1.000000 57.317608 1.000000 52.899330 L 1.000000 9.000000 C 1.000000 4.581722 4.581722 1.000000 9.000000 1.000000 Z" transform="scale(1.000000,1.000000) translate(285.699665,252.552025)" fill="#6886a6" opacity="1.000000"></path>
        <path d="M 9.000000 1.000000 L 52.899330 1.000000 C 57.317608 1.000000 60.899330 4.581722 60.899330 9.000000 L 60.899330 52.899330 C 60.899330 57.317608 57.317608 60.899330 52.899330 60.899330 L 9.000000 60.899330 C 4.581722 60.899330 1.000000 57.317608 1.000000 52.899330 L 1.000000 9.000000 C 1.000000 4.581722 4.581722 1.000000 9.000000 1.000000 Z" transform="scale(1.000000,1.000000) translate(318.479583,188.163972)" fill="#6886a6" opacity="1.000000"></path>
        <path d="M 9.000000 1.000000 L 52.899330 1.000000 C 57.317608 1.000000 60.899330 4.581722 60.899330 9.000000 L 60.899330 52.899330 C 60.899330 57.317608 57.317608 60.899330 52.899330 60.899330 L 9.000000 60.899330 C 4.581722 60.899330 1.000000 57.317608 1.000000 52.899330 L 1.000000 9.000000 C 1.000000 4.581722 4.581722 1.000000 9.000000 1.000000 Z" transform="scale(1.000000,1.000000) translate(352.348995,252.552025)" fill="#6886a6" opacity="1.000000"></path>
        <path d="M 9.000000 1.000000 L 52.899330 1.000000 C 57.317608 1.000000 60.899330 4.581722 60.899330 9.000000 L 60.899330 52.899330 C 60.899330 57.317608 57.317608 60.899330 52.899330 60.899330 L 9.000000 60.899330 C 4.581722 60.899330 1.000000 57.317608 1.000000 52.899330 L 1.000000 9.000000 C 1.000000 4.581722 4.581722 1.000000 9.000000 1.000000 Z" transform="scale(1.000000,1.000000) translate(418.998325,317.532753)" fill="#6886a6" opacity="1.000000"></path>
        <path d="M 9.000000 1.000000 L 52.899330 1.000000 C 57.317608 1.000000 60.899330 4.581722 60.899330 9.000000 L 60.899330 52.899330 C 60.899330 57.317608 57.317608 60.899330 52.899330 60.899330 L 9.000000 60.899330 C 4.581722 60.899330 1.000000 57.317608 1.000000 52.899330 L 1.000000 9.000000 C 1.000000 4.581722 4.581722 1.000000 9.000000 1.000000 Z" transform="scale(1.000000,1.000000) translate(418.998325,252.552025)" fill="#6886a6" opacity="1.000000"></path>
        <path d="M 9.000000 1.000000 L 52.899330 1.000000 C 57.317608 1.000000 60.899330 4.581722 60.899330 9.000000 L 60.899330 52.899330 C 60.899330 57.317608 57.317608 60.899330 52.899330 60.899330 L 9.000000 60.899330 C 4.581722 60.899330 1.000000 57.317608 1.000000 52.899330 L 1.000000 9.000000 C 1.000000 4.581722 4.581722 1.000000 9.000000 1.000000 Z" transform="scale(1.000000,1.000000) translate(418.998325,188.157234)" fill="#6886a6" opacity="1.000000"></path>
        <path d="M 9.000000 1.000000 L 52.899330 1.000000 C 57.317608 1.000000 60.899330 4.581722 60.899330 9.000000 L 60.899330 52.899330 C 60.899330 57.317608 57.317608 60.899330 52.899330 60.899330 L 9.000000 60.899330 C 4.581722 60.899330 1.000000 57.317608 1.000000 52.899330 L 1.000000 9.000000 C 1.000000 4.581722 4.581722 1.000000 9.000000 1.000000 Z" transform="scale(1.000000,1.000000) translate(418.998325,123.177902)" fill="#6886a6" opacity="1.000000"></path>
    </g>
</svg>
